<?xml version="1.0" standalone="no"?>
<!DOCTYPE svg PUBLIC "-//W3C//DTD SVG 20010904//EN"
 "http://www.w3.org/TR/2001/REC-SVG-20010904/DTD/svg10.dtd">
<svg version="1.0" xmlns="http://www.w3.org/2000/svg"
 width="1000.000000pt" height="1000.000000pt" viewBox="0 0 1000.000000 1000.000000"
 preserveAspectRatio="xMidYMid meet">
<metadata>
Created by potrace 1.11, written by Peter Selinger 2001-2013
</metadata>
<g transform="translate(0.000000,1000.000000) scale(0.100000,-0.100000)"
fill="#000000" stroke="none">
<path d="M5289 9888 c-73 -30 -120 -68 -146 -118 -22 -39 -22 -47 -17 -358 8
-604 11 -659 35 -710 51 -104 110 -140 325 -196 267 -70 403 -120 584 -214 92
-47 276 -156 290 -172 3 -3 48 -37 100 -77 91 -69 212 -181 351 -328 84 -89
101 -102 165 -132 67 -31 82 -34 179 -40 78 -4 87 -2 440 102 198 58 396 116
440 130 44 13 157 47 251 75 205 60 249 78 291 122 54 56 70 119 52 205 -15
77 -63 138 -243 318 -565 562 -1203 956 -1944 1201 -111 36 -358 106 -421 119
-9 2 -72 15 -141 28 -109 22 -182 35 -297 53 -15 2 -75 7 -133 9 -93 5 -111 3
-161 -17z"/>
<path d="M4780 8013 c-383 -56 -744 -236 -1018 -506 -293 -288 -469 -633 -538
-1053 -15 -95 -22 -378 -11 -449 3 -16 11 -64 17 -105 12 -78 54 -250 69 -285
5 -11 17 -42 26 -70 125 -357 433 -725 775 -925 205 -120 456 -212 635 -235
28 -3 77 -10 110 -15 59 -8 390 -6 430 3 11 2 43 8 70 11 77 11 235 53 327 86
344 126 628 342 866 658 78 104 180 299 232 447 54 152 76 247 98 420 11 92 7
370 -7 465 -58 392 -237 748 -520 1031 -237 236 -510 394 -824 478 -82 22 -92
24 -234 45 -117 17 -385 17 -503 -1z"/>
<path d="M8705 7491 c-71 -19 -528 -158 -555 -168 -8 -4 -17 -7 -20 -8 -3 0
-14 -4 -25 -7 -11 -4 -65 -20 -120 -37 -545 -165 -558 -170 -619 -244 -51 -62
-66 -112 -62 -204 2 -43 6 -87 9 -98 69 -257 82 -629 33 -910 -57 -320 -148
-552 -344 -873 -69 -114 -86 -167 -86 -277 -1 -162 31 -246 153 -410 25 -33
48 -62 51 -65 3 -3 34 -43 70 -90 35 -47 67 -87 70 -90 3 -3 41 -52 85 -108
130 -169 284 -365 305 -390 10 -13 29 -37 42 -55 12 -18 25 -34 28 -37 3 -3
77 -97 165 -210 430 -554 518 -662 581 -714 256 -211 559 -190 693 47 13 23
41 74 63 112 105 186 241 492 324 725 88 247 185 614 208 785 3 22 9 63 15 90
5 28 12 79 16 115 3 36 10 92 15 125 29 191 33 828 5 985 -2 14 -7 56 -10 94
-3 37 -7 71 -9 75 -2 3 -7 31 -10 61 -8 71 -23 161 -46 270 -6 30 -13 66 -16
80 -9 47 -74 299 -88 342 -8 24 -24 77 -36 118 -24 81 -111 320 -141 385 -10
22 -40 91 -68 153 -118 266 -183 339 -386 427 -61 26 -204 29 -290 6z"/>
<path d="M3570 4100 c-119 -25 -244 -116 -346 -250 -148 -197 -1265 -1726
-1301 -1782 -174 -269 -198 -634 -57 -868 52 -88 110 -137 337 -289 355 -238
769 -439 1195 -580 133 -44 418 -121 503 -136 16 -3 60 -12 97 -19 132 -28
385 -62 532 -71 52 -4 109 -8 125 -10 36 -5 459 -5 532 0 77 4 203 15 238 20
17 3 57 7 90 10 33 3 67 8 75 10 8 2 37 6 63 10 26 3 71 10 100 16 29 5 68 12
87 15 50 8 310 70 410 98 525 146 1077 413 1530 741 106 76 101 73 152 135 46
58 70 106 99 200 33 107 34 317 1 440 -47 176 -88 240 -569 895 -246 336 -547
745 -668 910 -241 330 -285 381 -363 432 -93 60 -160 79 -277 77 -70 -2 -93
-7 -180 -44 -184 -77 -385 -145 -485 -164 -14 -2 -46 -9 -72 -15 -146 -34
-285 -46 -508 -46 -177 1 -282 6 -343 19 -12 3 -41 8 -65 10 -24 3 -83 15
-130 27 -48 11 -98 23 -112 25 -43 9 -300 100 -402 143 -106 45 -202 59 -288
41z"/>
</g>
</svg>
